<svg class="icon" style="width: 1.001953125em; height: 1em;vertical-align: middle;fill: currentColor;overflow: hidden;" viewBox="0 0 1026 1024" version="1.1" xmlns="http://www.w3.org/2000/svg"><path d="M512 0c281.6 0 512 230.4 512 512v51.2c12.8 96-25.6 217.6-70.4 288-38.4 57.6-128 115.2-288 172.8-6.4-6.4-6.4-12.8-12.8-19.2-44.8 12.8-89.6 19.2-140.8 19.2-281.6 0-512-230.4-512-512s230.4-512 512-512z m0 64C262.4 64 64 262.4 64 512s198.4 448 448 448c38.4 0 76.8-6.4 115.2-12.8-19.2-57.6-12.8-108.8-19.2-134.4 0-19.2-12.8-44.8-38.4-76.8 44.8-57.6 57.6-108.8 51.2-160 0 108.8-102.4 96-121.6 89.6s-57.6-25.6-108.8-19.2c-51.2 6.4-64 51.2-89.6 19.2-19.2-19.2-32-44.8-44.8-64l12.8-51.2c-32-38.4-51.2-76.8-44.8-121.6-19.2-25.6-25.6-51.2-32-64 32-51.2 83.2-44.8 160-89.6 19.2-19.2 44.8-38.4 76.8-44.8 44.8-6.4 83.2-6.4 115.2-12.8s32 12.8 19.2 44.8c32-51.2 64-76.8 102.4-70.4l25.6 70.4L960 467.2C934.4 243.2 742.4 64 512 64z" /></svg>